{
    "accessors" : [
        {
            "bufferView" : 0,
            "componentType" : 5123,
            "count" : 2688,
            "max" : [
                480
            ],
            "min" : [
                0
            ],
            "type" : "SCALAR"
        },
        {
            "bufferView" : 1,
            "componentType" : 5126,
            "count" : 481,
            "max" : [
                0.09839200228452682,
                0.09839200973510742,
                0.1459520310163498
            ],
            "min" : [
                -0.09839200228452682,
                -0.09839199483394623,
                -0.10023599863052368
            ],
            "type" : "VEC3"
        },
        {
            "bufferView" : 2,
            "componentType" : 5126,
            "count" : 481,
            "max" : [
                1.0,
                1.0,
                -0.0
            ],
            "min" : [
                -1.0,
                -0.999969482421875,
                -1.0
            ],
            "type" : "VEC3"
        },
        {
            "bufferView" : 3,
            "componentType" : 5123,
            "count" : 3264,
            "max" : [
                577
            ],
            "min" : [
                0
            ],
            "type" : "SCALAR"
        },
        {
            "bufferView" : 4,
            "componentType" : 5126,
            "count" : 578,
            "max" : [
                0.09329500049352646,
                0.046275001019239426,
                -0.028018999844789505
            ],
            "min" : [
                0.0778380036354065,
                -0.046275001019239426,
                -0.055608998984098434
            ],
            "type" : "VEC3"
        },
        {
            "bufferView" : 5,
            "componentType" : 5126,
            "count" : 578,
            "max" : [
                0.99993896484375,
                0.9970701932907104,
                0.8355967998504639
            ],
            "min" : [
                -0.26667073369026184,
                -0.9970701932907104,
                -0.9981994032859802
            ],
            "type" : "VEC3"
        },
        {
            "bufferView" : 6,
            "componentType" : 5123,
            "count" : 3264,
            "max" : [
                577
            ],
            "min" : [
                0
            ],
            "type" : "SCALAR"
        },
        {
            "bufferView" : 7,
            "componentType" : 5126,
            "count" : 578,
            "max" : [
                0.09315600246191025,
                0.06894499808549881,
                -0.009569999761879444
            ],
            "min" : [
                0.04995400086045265,
                -0.06894499808549881,
                -0.06832700222730637
            ],
            "type" : "VEC3"
        },
        {
            "bufferView" : 8,
            "componentType" : 5126,
            "count" : 578,
            "max" : [
                0.9963072538375854,
                0.9891964197158813,
                0.8285775184631348
            ],
            "min" : [
                -0.48103275895118713,
                -0.9891964197158813,
                -0.99993896484375
            ],
            "type" : "VEC3"
        }
    ],
    "asset" : {
        "generator" : "Khronos Blender glTF 2.0 exporter",
        "version" : "2.0"
    },
    "bufferViews" : [
        {
            "buffer" : 0,
            "byteLength" : 5376,
            "byteOffset" : 0,
            "target" : 34963
        },
        {
            "buffer" : 0,
            "byteLength" : 5772,
            "byteOffset" : 5376,
            "target" : 34962
        },
        {
            "buffer" : 0,
            "byteLength" : 5772,
            "byteOffset" : 11148,
            "target" : 34962
        },
        {
            "buffer" : 0,
            "byteLength" : 6528,
            "byteOffset" : 16920,
            "target" : 34963
        },
        {
            "buffer" : 0,
            "byteLength" : 6936,
            "byteOffset" : 23448,
            "target" : 34962
        },
        {
            "buffer" : 0,
            "byteLength" : 6936,
            "byteOffset" : 30384,
            "target" : 34962
        },
        {
            "buffer" : 0,
            "byteLength" : 6528,
            "byteOffset" : 37320,
            "target" : 34963
        },
        {
            "buffer" : 0,
            "byteLength" : 6936,
            "byteOffset" : 43848,
            "target" : 34962
        },
        {
            "buffer" : 0,
            "byteLength" : 6936,
            "byteOffset" : 50784,
            "target" : 34962
        }
    ],
    "buffers" : [
        {
            "byteLength" : 57720,
            "uri" : "data:application/octet-stream;base64,"
        }
    ],
    "materials" : [
        {
            "alphaMode" : "BLEND",
            "name" : "ghostmat",
            "pbrMetallicRoughness" : {
                "baseColorFactor" : [
                    1.0,
                    0.0,
                    0.0,
                    1.0
                ],
                "metallicFactor" : 0.0
            }
        },
        {
            "name" : "Material.001",
            "pbrMetallicRoughness" : {
                "baseColorFactor" : [
                    0.012166810217005164,
                    0.012166810217005164,
                    0.5843687621410005,
                    1.0
                ],
                "metallicFactor" : 0.0
            }
        },
        {
            "alphaMode" : "BLEND",
            "name" : "whiteeyesmat",
            "pbrMetallicRoughness" : {
                "baseColorFactor" : [
                    0.800000011920929,
                    0.800000011920929,
                    0.800000011920929,
                    1.0
                ],
                "metallicFactor" : 0.0
            }
        }
    ],
    "meshes" : [
        {
            "name" : "body",
            "primitives" : [
                {
                    "attributes" : {
                        "NORMAL" : 2,
                        "POSITION" : 1
                    },
                    "indices" : 0,
                    "material" : 0
                }
            ]
        },
        {
            "name" : "pupils",
            "primitives" : [
                {
                    "attributes" : {
                        "NORMAL" : 5,
                        "POSITION" : 4
                    },
                    "indices" : 3,
                    "material" : 1
                }
            ]
        },
        {
            "name" : "eyes",
            "primitives" : [
                {
                    "attributes" : {
                        "NORMAL" : 8,
                        "POSITION" : 7
                    },
                    "indices" : 6,
                    "material" : 2
                }
            ]
        }
    ],
    "nodes" : [
        {
            "mesh" : 0,
            "name" : "body",
            "rotation" : [
                0.5000000596046448,
                -0.4999999701976776,
                0.5000000596046448,
                0.4999999403953552
            ],
            "scale" : [
                4.140981674194336,
                4.140981674194336,
                4.140981674194336
            ],
            "translation" : [
                0.004431689158082008,
                0.7460362315177917,
                -0.0027084979228675365
            ]
        },
        {
            "name" : "Camera",
            "rotation" : [
                0.483536034822464,
                0.33687159419059753,
                -0.20870360732078552,
                0.7804827094078064
            ],
            "translation" : [
                7.481131553649902,
                5.34366512298584,
                6.5076398849487305
            ]
        },
        {
            "mesh" : 2,
            "name" : "eyes",
            "rotation" : [
                0.5446056127548218,
                -0.544605553150177,
                0.451004296541214,
                0.45100414752960205
            ],
            "scale" : [
                4.140981674194336,
                4.140981674194336,
                4.140981674194336
            ],
            "translation" : [
                0.004431689158082008,
                0.6877977252006531,
                0.0022155274637043476
            ]
        },
        {
            "name" : "Lamp",
            "rotation" : [
                0.16907575726509094,
                0.7558802962303162,
                -0.27217137813568115,
                0.570947527885437
            ],
            "scale" : [
                1.0,
                1.0,
                0.9999999403953552
            ],
            "translation" : [
                0.003047943115234375,
                0.5920349359512329,
                1.7470617294311523
            ]
        },
        {
            "mesh" : 1,
            "name" : "pupils",
            "rotation" : [
                0.5446056127548218,
                -0.544605553150177,
                0.451004296541214,
                0.45100414752960205
            ],
            "scale" : [
                4.140981674194336,
                4.140981674194336,
                4.140981674194336
            ],
            "translation" : [
                0.0009685270488262177,
                0.6878407597541809,
                0.001988406525924802
            ]
        }
    ],
    "scene" : 0,
    "scenes" : [
        {
            "name" : "Scene",
            "nodes" : [
                4,
                2,
                0,
                3,
                1
            ]
        }
    ]
}
