{"asset":{"version":"2.0","generator":"THREE.JS GLTFExporter"},"scenes":[{"nodes":[0],"name":"AuxScene"}],"scene":0,"nodes":[{"mesh":0}],"meshes":[{"primitives":[{"mode":4,"attributes":{"POSITION":0,"NORMAL":1},"material":0}]}],"materials":[{"pbrMetallicRoughness":{"baseColorFactor":[0.5019607843137255,0.5019607843137255,0.5019607843137255,1],"metallicFactor":0,"roughnessFactor":1}}],"accessors":[{"bufferView":0,"componentType":5126,"count":1137,"max":[7.139998912811279,0.09952600300312042,7.371492862701416],"min":[-7.099999904632568,0.09952600300312042,-7.508505821228027],"type":"VEC3"},{"bufferView":1,"componentType":5126,"count":1137,"max":[0,1,0],"min":[0,1,0],"type":"VEC3"}],"bufferViews":[{"buffer":0,"byteOffset":0,"byteLength":13644,"byteStride":12,"target":34962},{"buffer":0,"byteOffset":13644,"byteLength":13644,"byteStride":12,"target":34962}],"buffers":[{"byteLength":27288,"uri":"data:application/octet-stream;base64,"}]}