<?xml version="1.0" standalone="no"?>
<!DOCTYPE svg PUBLIC "-//W3C//DTD SVG 20010904//EN"
 "http://www.w3.org/TR/2001/REC-SVG-20010904/DTD/svg10.dtd">
<svg version="1.0" xmlns="http://www.w3.org/2000/svg"
 width="260.000000pt" height="260.000000pt" viewBox="0 0 260.000000 260.000000"
 preserveAspectRatio="xMidYMid meet">
<metadata>
Created by potrace 1.11, written by Peter Selinger 2001-2013
</metadata>
<g transform="translate(0.000000,260.000000) scale(0.100000,-0.100000)"
fill="#000000" stroke="none">
<path d="M945 2523 c-265 -46 -495 -169 -682 -365 -41 -43 -60 -71 -58 -84 2
-10 4 -22 4 -26 1 -6 87 -68 95 -68 2 0 55 -30 117 -66 63 -37 134 -78 159
-92 25 -13 65 -37 90 -52 36 -22 248 -144 483 -279 18 -10 61 -35 97 -56 36
-21 81 -46 100 -57 101 -58 121 -71 113 -78 -4 -4 -163 -96 -353 -205 -190
-108 -357 -206 -372 -216 -15 -11 -29 -19 -32 -19 -2 0 -50 -27 -106 -60 -56
-33 -104 -60 -106 -60 -2 0 -21 -11 -42 -23 -20 -13 -82 -50 -137 -82 -55 -32
-103 -63 -107 -69 -19 -28 -5 -59 59 -127 166 -175 391 -301 638 -356 82 -18
349 -24 440 -10 278 42 517 166 713 372 176 184 284 395 326 638 19 111 15
375 -8 481 -46 211 -151 415 -292 567 -38 41 -78 81 -89 90 -11 9 -31 27 -45
39 -123 109 -330 211 -505 251 -27 6 -59 13 -70 16 -49 12 -353 10 -430 -4z"/>
</g>
</svg>
